<svg width="824" height="757" viewBox="0 0 824 757" fill="none" xmlns="http://www.w3.org/2000/svg">
<path fill-rule="evenodd" clip-rule="evenodd" d="M768.385 216.999C767.791 216.567 766.383 216.414 765.727 216.285C763.004 215.748 760.198 215.514 757.421 215.514C748.859 215.527 740.159 216.367 731.739 217.822C726.393 218.745 719.93 221.853 714.613 220.165C705.348 217.225 695.985 217.369 687.196 221.567C679.16 225.406 673.059 232.696 669.499 240.574C668.962 241.763 666.783 246.14 666.166 249.09C665.902 249.694 665.649 250.301 665.42 250.917C664.772 252.668 664.191 254.449 663.651 256.233C663.42 256.995 662.839 258.676 663.529 259.001C662.427 261.033 661.451 263.128 660.638 265.291C658.273 271.581 655.687 278.48 654.856 285.147C654.548 287.615 654.537 290.098 654.822 292.572C654.964 293.794 654.905 296.252 655.734 297.182C657.493 299.154 658.396 296.393 658.198 295.078C656.683 285.054 659.607 275.642 663.072 266.22C665.313 260.127 668.995 254.553 673.119 249.505C676.457 245.419 680.037 242.202 684.613 239.493C690.208 236.18 696.19 233.502 702.117 230.815C706.015 229.048 709.918 227.328 713.925 225.805C714.816 225.466 716.218 224.597 717.206 224.594C719.295 224.586 722.256 226.128 724.274 226.701C730.911 228.588 737.634 231.005 744.494 231.968C748.894 232.587 753.016 231.891 757.131 230.425C757.551 230.275 758.256 229.89 759.12 229.341C762.175 228.165 765.065 226.686 767.581 224.553C769.031 223.323 770.347 221.734 771.547 220.28C771.906 219.845 772.064 219.347 772.07 218.873C772.342 218.731 772.522 218.565 772.563 218.371C772.862 216.94 770.132 216.914 768.385 216.999" fill="#94E1C3"/>
<path fill-rule="evenodd" clip-rule="evenodd" d="M72.8643 336.311C71.1846 337.671 69.5371 339.061 67.9298 340.506C66.7049 341.608 64.5371 342.927 64.0974 344.596C63.6403 346.33 65.0834 347.954 66.2235 349.003C72.2522 354.55 79.0407 358.299 87.3945 358.923C100.257 359.883 111.452 356.599 122.612 350.135C130.451 345.595 135.644 338.88 136.778 329.811C146.115 333.692 155.144 339.04 162.818 345.604C166.604 348.843 169.865 352.431 172.881 356.409C174.813 358.957 176.681 361.546 178.415 364.234C179.169 365.402 179.935 367.474 181.18 368.146C182.641 368.937 184.407 367.698 184.334 366.074C184.274 364.722 182.814 363.154 182.132 362.049C180.998 360.213 179.847 358.39 178.635 356.605C176.675 353.715 174.648 350.867 172.437 348.162C167.47 342.087 161.15 337.068 154.598 332.788C142.029 324.577 128.234 319.404 112.94 318.966C103.536 318.696 95.6251 321.909 87.5831 326.707C82.5762 329.694 77.4077 332.632 72.8643 336.311" fill="#888888"/>
<path fill-rule="evenodd" clip-rule="evenodd" d="M194.851 296.596C185.051 286.504 175.217 276.537 164.268 267.65C157.816 262.414 151.015 257.652 144.355 252.687C145.124 253.36 145.877 254.052 146.613 254.762C144.534 253.351 141.813 252.553 139.608 251.247C137.15 249.79 134.8 248.123 132.495 246.443C127.996 243.165 123.564 239.824 118.939 236.716C113.786 233.254 108.446 230.055 103.205 226.724C98.7573 223.896 94.2552 220.802 89.497 218.491C86.9037 217.231 84.3043 215.737 81.7003 214.423C80.8289 213.984 71.9859 208.4 72.0082 208.383C72.497 208.015 76.947 210.106 77.6351 210.387C79.6453 211.208 81.5678 212.19 83.5006 213.169C82.4397 211.077 81.5999 208.878 81.1429 206.564C81.0016 205.85 79.8703 200.65 80.4492 200.214C80.7383 199.996 83.5596 209.299 83.7041 210.194C83.8215 210.92 83.8042 211.967 84.0421 212.654C84.426 213.766 84.4067 213.43 85.2525 214.056C86.8029 215.203 88.8608 215.92 90.5387 216.879C91.4435 217.384 94.2449 219.387 95.9323 219.958C101.038 222.438 106.213 226.253 111.064 229.42C109.791 227.027 108.822 224.526 108.115 221.904C107.947 221.281 106.134 215.697 106.574 215.366C107.069 214.993 110.524 223.521 110.728 224.329C111.108 225.828 111.187 227.497 111.663 228.957C112.186 230.558 113.816 231.126 115.285 232.059C120.691 235.494 125.911 239.144 131.044 242.961C136.645 232.999 130.187 220.97 124.744 212.612C120.821 206.589 115.539 201.425 109.963 196.916C102.52 190.899 94.0049 186.092 85.5001 181.695C75.5903 176.572 64.8795 173.397 53.7444 171.931C47.9205 171.164 41.9623 171.185 36.0796 171.431C33.2058 171.551 30.4475 171.932 27.6936 172.869C26.4523 173.292 25.2528 173.825 24.0837 174.422C23.1955 174.875 21.0469 175.354 20.5362 176.029C16.3324 181.501 14.1817 186.953 14.5102 193.829C14.8207 200.337 16.8763 206.849 19.6659 212.655C22.7726 219.119 26.7683 224.987 31.9939 229.911C35.9808 233.668 40.4382 236.938 44.8662 240.165C60.6152 251.643 80.5822 261.625 100.98 259.061C107.583 258.231 113.863 255.922 119.732 252.784C121.114 252.045 122.489 251.297 123.794 250.424C124.674 249.835 127.027 247.183 127.912 247.087C129.126 246.955 131.74 249.423 132.878 250.174C141.53 255.885 149.955 261.906 158.203 268.17C166.978 274.834 175.324 281.952 183.423 289.404C186.868 292.574 190.291 295.751 193.636 299.028C194.414 299.79 196.319 302.597 197.731 302.724C198.624 302.804 199.226 302.042 199.098 301.216C198.877 299.779 195.854 297.63 194.851 296.596" fill="#5FAF8F"/>
<path fill-rule="evenodd" clip-rule="evenodd" d="M758.096 257.426C754.3 256.597 750.108 256.66 746.241 256.729C725.504 257.011 705.14 266.829 691.886 282.517C680.604 295.872 677.501 312.477 675.272 329.262C675.051 330.928 674.957 332.584 674.832 334.254C674.805 334.613 674.765 334.932 674.722 335.233C673.846 336.017 673.386 336.931 673.905 337.935C671.974 342.16 670.34 346.494 668.938 350.963C664.813 364.117 660.616 377.522 663.202 391.355C663.806 383.743 665.076 375.959 666.595 368.471C666.683 368.042 666.777 367.615 666.875 367.19C666.885 367.145 666.895 367.101 666.905 367.056C667.443 364.763 668.142 362.539 668.992 360.35C669.001 360.326 669.01 360.302 669.019 360.279C669.131 359.991 669.25 359.704 669.368 359.418C669.612 358.824 669.862 358.232 670.127 357.643C670.217 357.442 670.303 357.24 670.386 357.036C671.623 354.002 672.146 350.584 673.255 347.445C673.52 346.731 673.798 346.02 674.088 345.313C674.105 345.271 674.123 345.23 674.14 345.188C674.925 343.285 675.793 341.405 676.71 339.544C677.209 339.17 677.476 338.24 677.906 337.395C677.995 337.229 678.69 336.119 678.897 335.479C679.437 334.434 679.975 333.388 680.519 332.345C680.503 332.351 680.487 332.357 680.47 332.363C681.015 331.361 681.561 330.364 682.103 329.37C682.222 329.152 682.343 328.934 682.463 328.715C682.657 328.366 682.852 328.018 683.046 327.671C684.862 324.42 686.788 321.234 688.789 318.088C689.502 316.965 691.208 315.355 691.535 314.095C691.547 314.048 691.55 314.004 691.557 313.959C695.897 307.863 700.894 302.241 706.886 297.785C706.162 298.568 704.622 301.225 704.215 301.751C702.969 303.362 701.617 304.861 700.26 306.379C697.829 309.098 695.455 311.903 693.346 314.869C689.49 320.293 686.162 326.001 683.017 331.825C682.987 331.859 682.955 331.891 682.926 331.926C681.346 333.875 680.35 336.82 679.212 339.049C683.716 336.963 688.695 335.604 693.317 333.752C697.926 331.906 702.41 329.85 706.738 327.435C712.492 324.226 718.459 320.603 723.895 316.503C730.125 312.639 735.359 307.32 739.98 301.739C745.447 295.136 750.457 288.474 753.556 280.456C755.078 276.516 756.275 272.408 756.985 268.251C757.016 268.07 757.056 267.873 757.099 267.669C757.825 266.234 758.475 264.766 759.02 263.264C759.885 260.883 761.929 258.263 758.096 257.426" fill="#7FC0A6"/>
<path fill-rule="evenodd" clip-rule="evenodd" d="M114.64 285.718C113.451 284.43 112.115 283.269 110.547 282.44C110.15 282.231 107.197 280.827 107.005 281.135C106.557 281.852 114.283 285.307 114.64 285.718M128.642 277.116C128.632 277.171 129.656 278.908 129.935 279.443C130.528 280.578 131.076 281.737 131.592 282.897C130.829 280.848 130.045 278.947 128.642 277.116M57.0318 291.26C56.0456 291.578 54.8598 290.326 56.139 290.018C57.1741 289.77 57.1234 289.712 57.5881 288.878C57.9655 288.201 58.1981 287.375 58.5292 286.665C59.2317 285.158 60.0286 283.721 61.0067 282.374C63.1029 279.487 65.657 277 68.5217 274.903C73.5209 271.245 79.1264 267.902 85.0725 266.222C94.5269 263.552 105.287 263.386 114.757 265.238C120.621 266.385 125.981 268.379 129.875 273.101C131.821 275.46 133.349 278.225 134.017 281.269C134.191 282.065 134.158 282.95 134.377 283.729C134.712 284.926 134.564 284.608 135.965 284.841C137.495 285.095 139.023 285.355 140.551 285.619C144.552 286.311 148.576 287.046 152.474 288.169C153.757 288.538 155.012 288.99 156.238 289.514C157.165 289.911 160.857 291.156 161.305 292.36C162.052 294.364 159.55 293.456 158.772 293.019C158.091 292.637 157.392 292.28 156.683 291.952C154.897 291.125 153.036 290.486 151.133 289.977C149.077 289.427 146.978 289.017 144.888 288.605C142.939 288.222 140.982 287.874 139.023 287.541C137.934 287.355 136.845 287.175 135.756 286.995C135.384 286.934 134.727 286.612 134.777 287.096C132.487 286.654 130.01 286.718 127.677 286.596C124.82 286.447 121.952 286.325 119.086 286.414C117.018 286.479 114.948 286.614 112.891 286.892C111.689 287.055 110.506 287.292 109.327 287.593C108.679 287.758 106.125 288.109 105.772 288.673C105.923 288.431 108.743 288.666 109.102 288.652C110.537 288.598 111.961 288.456 113.391 288.296C116.045 288 118.7 287.845 121.362 287.868C121.352 288.335 119.533 289.167 119.089 289.477C118.094 290.172 117.141 290.929 116.252 291.76C114.685 293.224 112.809 295.037 111.726 296.771C112.045 296.26 113.62 295.595 114.179 295.205C115.075 294.579 115.952 293.911 116.783 293.198C117.549 292.539 118.264 291.827 118.968 291.1C119.671 290.373 120.625 288.861 121.549 288.376C121.605 288.347 122.008 288.666 122.237 288.557C122.467 288.448 122.755 287.903 122.813 287.881C123.674 287.549 125.307 287.962 126.212 288.004C128.557 288.112 130.9 288.253 133.244 288.382C133.97 288.422 134.587 288.257 134.861 288.793C135.153 289.364 134.618 290.865 134.465 291.487C133.9 293.798 132.897 295.87 131.317 297.66C128.358 301.013 124.71 303.248 120.588 304.743C104.802 310.47 88.0079 312.764 72.2265 306.806C65.6931 304.34 55.8537 299.932 57.0318 291.26" fill="#94E1C3"/>
<g opacity="0.6" clip-path="url(#clip0_3_3161)">
<path fill-rule="evenodd" clip-rule="evenodd" d="M779.834 561.08C790.573 633.78 530.124 681.2 305.95 648.107C81.7752 615.014 -21.0654 485.781 85.9069 416.921C192.879 348.061 769.094 488.38 779.834 561.08Z" fill="#888888"/>
</g>
<g clip-path="url(#clip1_3_3161)">
<rect x="153.803" y="84.1898" width="176.954" height="336.101" rx="8.90334" fill="#ECEEEF"/>
<path fill-rule="evenodd" clip-rule="evenodd" d="M241.724 399.145C250.944 399.145 258.418 391.671 258.418 382.452C258.418 373.232 250.944 365.758 241.724 365.758C232.504 365.758 225.03 373.232 225.03 382.452C225.03 391.671 232.504 399.145 241.724 399.145Z" fill="white"/>
<path fill-rule="evenodd" clip-rule="evenodd" d="M227.256 106.448C228.485 106.448 229.482 105.452 229.482 104.222C229.482 102.993 228.485 101.996 227.256 101.996C226.027 101.996 225.03 102.993 225.03 104.222C225.03 105.452 226.027 106.448 227.256 106.448Z" fill="white"/>
<rect x="235.046" y="101.996" width="23.3713" height="4.45167" rx="2.22583" fill="white"/>
<g clip-path="url(#clip2_3_3161)">
<g clip-path="url(#clip3_3_3161)">
<rect x="169.384" y="115.352" width="145.792" height="60.0975" rx="4.45167" fill="white"/>
<g clip-path="url(#clip4_3_3161)">
<rect x="212.788" y="133.381" width="81.243" height="9.01463" rx="3.33875" fill="#888888"/>
<rect x="212.788" y="148.405" width="54.533" height="9.01463" rx="3.33875" fill="#888888"/>
</g>
<path fill-rule="evenodd" clip-rule="evenodd" d="M192.755 158.755C200.131 158.755 206.11 152.776 206.11 145.4C206.11 138.024 200.131 132.045 192.755 132.045C185.38 132.045 179.4 138.024 179.4 145.4C179.4 152.776 185.38 158.755 192.755 158.755Z" fill="#343A40"/>
</g>
<g clip-path="url(#clip5_3_3161)">
<rect x="169.384" y="184.352" width="145.792" height="46.7425" rx="4.45167" fill="white"/>
<g clip-path="url(#clip6_3_3161)">
<rect x="212.788" y="198.375" width="81.243" height="7.01138" rx="3.33875" fill="#888888"/>
<rect x="212.788" y="210.061" width="54.533" height="7.01138" rx="3.33875" fill="#888888"/>
</g>
<path fill-rule="evenodd" clip-rule="evenodd" d="M192.755 221.079C200.131 221.079 206.11 215.099 206.11 207.724C206.11 200.348 200.131 194.369 192.755 194.369C185.38 194.369 179.4 200.348 179.4 207.724C179.4 215.099 185.38 221.079 192.755 221.079Z" fill="#343A40"/>
</g>
<g clip-path="url(#clip7_3_3161)">
<rect x="169.384" y="239.998" width="145.792" height="46.7425" rx="4.45167" fill="white"/>
<g clip-path="url(#clip8_3_3161)">
<rect x="212.788" y="254.021" width="81.243" height="7.01138" rx="3.33875" fill="#888888"/>
<rect x="212.788" y="265.707" width="54.533" height="7.01138" rx="3.33875" fill="#888888"/>
</g>
<path fill-rule="evenodd" clip-rule="evenodd" d="M192.755 276.724C200.131 276.724 206.11 270.745 206.11 263.369C206.11 255.994 200.131 250.014 192.755 250.014C185.38 250.014 179.4 255.994 179.4 263.369C179.4 270.745 185.38 276.724 192.755 276.724Z" fill="#AAAAAA"/>
</g>
<g clip-path="url(#clip9_3_3161)">
<rect x="169.384" y="295.644" width="145.792" height="46.7425" rx="4.45167" fill="white"/>
<g clip-path="url(#clip10_3_3161)">
<rect x="212.788" y="309.667" width="81.243" height="7.01138" rx="3.33875" fill="#888888"/>
<rect x="212.788" y="321.353" width="54.533" height="7.01138" rx="3.33875" fill="#888888"/>
</g>
<path fill-rule="evenodd" clip-rule="evenodd" d="M192.755 332.37C200.131 332.37 206.11 326.391 206.11 319.015C206.11 311.64 200.131 305.66 192.755 305.66C185.38 305.66 179.4 311.64 179.4 319.015C179.4 326.391 185.38 332.37 192.755 332.37Z" fill="#343A40"/>
</g>
</g>
</g>
<g clip-path="url(#clip11_3_3161)">
<path fill-rule="evenodd" clip-rule="evenodd" d="M187.346 355.742C185.872 355.742 184.402 355.771 182.929 355.848C181.807 355.907 180.092 355.674 179.142 356.373C178.155 357.1 178.223 358.588 178.377 359.638C179.192 365.194 181.181 370.12 185.342 374.055C191.749 380.116 199.093 383.195 207.784 384.566C213.889 385.53 219.525 384.192 224.019 379.851C227.303 385.945 229.794 392.689 231.044 399.496C231.661 402.855 231.849 406.173 231.741 409.593C231.671 411.784 231.55 413.969 231.315 416.149C231.213 417.097 230.73 418.531 231.101 419.426C231.536 420.477 233.004 420.579 233.663 419.683C234.212 418.936 234.111 417.471 234.223 416.588C234.41 415.121 234.583 413.654 234.707 412.18C234.908 409.795 235.056 407.403 235.046 405.009C235.02 399.63 233.824 394.229 232.188 389.123C229.05 379.327 223.958 370.621 216.038 363.79C211.168 359.589 205.595 357.888 199.272 356.975C195.335 356.406 191.334 355.742 187.346 355.742" fill="#94E1C3"/>
<path fill-rule="evenodd" clip-rule="evenodd" d="M210.085 394.694C194.171 394.694 183.454 407.519 178.386 420.849C176.476 425.874 176.028 431.391 175.292 436.667C175.055 438.36 175.143 440.94 174.456 442.448C174.206 442.995 173.635 443.192 173.908 443.937C174.074 444.388 174.398 444.665 174.886 444.754C175.887 444.939 177.302 443.848 178.16 443.418C185.279 439.848 189.955 434.328 193.771 427.575C196.136 423.389 198.535 419.043 199.94 414.448C200.799 411.641 201.298 408.684 201.592 405.772C201.707 404.625 201.819 403.451 201.812 402.297C201.805 401.152 201.273 400.547 200.89 399.55C206.2 397.54 212.193 396.993 217.572 399.075C222.547 401.002 226.679 404.725 228.993 409.402C229.594 410.617 230.058 411.9 230.396 413.208C230.617 414.065 230.627 415.176 231.037 415.951C232.03 417.829 234.12 416.573 233.92 414.825C233.36 409.949 230.571 405.054 227.005 401.663C222.509 397.388 216.413 394.694 210.085 394.694" fill="#94E1C3"/>
<rect x="227.256" y="113.126" width="176.954" height="336.101" rx="8.90334" fill="#888888"/>
<path fill-rule="evenodd" clip-rule="evenodd" d="M315.176 428.081C324.396 428.081 331.87 420.607 331.87 411.388C331.87 402.168 324.396 394.694 315.176 394.694C305.956 394.694 298.482 402.168 298.482 411.388C298.482 420.607 305.956 428.081 315.176 428.081Z" fill="white"/>
<path fill-rule="evenodd" clip-rule="evenodd" d="M300.708 135.384C301.938 135.384 302.934 134.387 302.934 133.158C302.934 131.929 301.938 130.932 300.708 130.932C299.479 130.932 298.482 131.929 298.482 133.158C298.482 134.387 299.479 135.384 300.708 135.384Z" fill="white"/>
<rect x="308.499" y="130.932" width="23.3713" height="4.45167" rx="2.22583" fill="white"/>
<g clip-path="url(#clip12_3_3161)">
<g clip-path="url(#clip13_3_3161)">
<rect x="242.837" y="144.287" width="145.792" height="60.0975" rx="4.45167" fill="white"/>
<g clip-path="url(#clip14_3_3161)">
<rect x="252.853" y="162.317" width="81.243" height="9.01463" rx="3.33875" fill="#888888"/>
<rect x="252.853" y="177.341" width="54.533" height="9.01463" rx="3.33875" fill="#888888"/>
</g>
<path fill-rule="evenodd" clip-rule="evenodd" d="M373.048 182.127C377.351 182.127 380.838 178.639 380.838 174.336C380.838 170.034 377.351 166.546 373.048 166.546C368.745 166.546 365.258 170.034 365.258 174.336C365.258 178.639 368.745 182.127 373.048 182.127Z" fill="#888888"/>
<path fill-rule="evenodd" clip-rule="evenodd" d="M373.048 177.675C374.892 177.675 376.387 176.18 376.387 174.336C376.387 172.492 374.892 170.997 373.048 170.997C371.204 170.997 369.709 172.492 369.709 174.336C369.709 176.18 371.204 177.675 373.048 177.675Z" fill="#ECEEEF"/>
</g>
<g clip-path="url(#clip15_3_3161)">
<rect x="242.837" y="213.288" width="145.792" height="46.7425" rx="4.45167" fill="white"/>
<g clip-path="url(#clip16_3_3161)">
<rect x="286.24" y="227.311" width="81.243" height="7.01138" rx="3.33875" fill="#888888"/>
<rect x="286.24" y="238.997" width="54.533" height="7.01138" rx="3.33875" fill="#888888"/>
</g>
<path fill-rule="evenodd" clip-rule="evenodd" d="M266.208 250.014C273.584 250.014 279.563 244.035 279.563 236.659C279.563 229.284 273.584 223.304 266.208 223.304C258.832 223.304 252.853 229.284 252.853 236.659C252.853 244.035 258.832 250.014 266.208 250.014Z" fill="#343A40"/>
</g>
<g clip-path="url(#clip17_3_3161)">
<rect x="242.837" y="268.934" width="145.792" height="46.7425" rx="4.45167" fill="white"/>
<g clip-path="url(#clip18_3_3161)">
<rect x="252.853" y="282.957" width="81.243" height="7.01138" rx="3.33875" fill="#888888"/>
<rect x="252.853" y="294.642" width="54.533" height="7.01138" rx="3.33875" fill="#AAAAAA"/>
</g>
<path fill-rule="evenodd" clip-rule="evenodd" d="M373.048 300.096C377.351 300.096 380.838 296.608 380.838 292.305C380.838 288.003 377.351 284.515 373.048 284.515C368.745 284.515 365.258 288.003 365.258 292.305C365.258 296.608 368.745 300.096 373.048 300.096Z" fill="#888888"/>
<path fill-rule="evenodd" clip-rule="evenodd" d="M373.048 295.644C374.892 295.644 376.387 294.149 376.387 292.305C376.387 290.461 374.892 288.967 373.048 288.967C371.204 288.967 369.709 290.461 369.709 292.305C369.709 294.149 371.204 295.644 373.048 295.644Z" fill="#ECEEEF"/>
</g>
<g clip-path="url(#clip19_3_3161)">
<rect x="242.837" y="324.58" width="145.792" height="46.7425" rx="4.45167" fill="white"/>
<g clip-path="url(#clip20_3_3161)">
<rect x="286.24" y="338.603" width="81.243" height="7.01138" rx="3.33875" fill="#888888"/>
<rect x="286.24" y="350.288" width="54.533" height="7.01138" rx="3.33875" fill="#888888"/>
</g>
<path fill-rule="evenodd" clip-rule="evenodd" d="M266.208 361.306C273.584 361.306 279.563 355.327 279.563 347.951C279.563 340.575 273.584 334.596 266.208 334.596C258.832 334.596 252.853 340.575 252.853 347.951C252.853 355.327 258.832 361.306 266.208 361.306Z" fill="#343A40"/>
</g>
</g>
</g>
<g clip-path="url(#clip21_3_3161)">
<rect x="300.708" y="140.949" width="372.827" height="385.069" rx="8.90334" fill="#ECEEEF"/>
<rect x="577.825" y="188.804" width="77.9042" height="90.1463" rx="8.90334" fill="white"/>
<path fill-rule="evenodd" clip-rule="evenodd" d="M616.777 241.111C626.611 241.111 634.584 233.139 634.584 223.304C634.584 213.47 626.611 205.498 616.777 205.498C606.943 205.498 598.97 213.47 598.97 223.304C598.97 233.139 606.943 241.111 616.777 241.111Z" fill="#888888"/>
<rect x="588.954" y="245.563" width="55.6459" height="6.6775" rx="3.33875" fill="#888888"/>
<rect x="597.857" y="256.692" width="37.8392" height="6.6775" rx="3.33875" fill="#888888"/>
<path d="M300.708 149.852C300.708 144.935 304.694 140.949 309.612 140.949H664.632C669.549 140.949 673.536 144.935 673.536 149.852V170.997H300.708V149.852Z" fill="#343A40"/>
<path fill-rule="evenodd" clip-rule="evenodd" d="M315.176 160.981C317.635 160.981 319.628 158.988 319.628 156.529C319.628 154.071 317.635 152.078 315.176 152.078C312.718 152.078 310.725 154.071 310.725 156.529C310.725 158.988 312.718 160.981 315.176 160.981Z" fill="#ECEEEF"/>
<path fill-rule="evenodd" clip-rule="evenodd" d="M328.531 160.981C330.99 160.981 332.983 158.988 332.983 156.529C332.983 154.071 330.99 152.078 328.531 152.078C326.073 152.078 324.08 154.071 324.08 156.529C324.08 158.988 326.073 160.981 328.531 160.981Z" fill="#ECEEEF"/>
<path fill-rule="evenodd" clip-rule="evenodd" d="M341.886 160.981C344.345 160.981 346.338 158.988 346.338 156.529C346.338 154.071 344.345 152.078 341.886 152.078C339.428 152.078 337.435 154.071 337.435 156.529C337.435 158.988 339.428 160.981 341.886 160.981Z" fill="#ECEEEF"/>
<g clip-path="url(#clip22_3_3161)">
<rect x="577.825" y="287.854" width="77.9042" height="215.906" rx="8.90334" fill="white"/>
<g clip-path="url(#clip23_3_3161)">
<rect x="597.857" y="307.886" width="37.8392" height="28.9359" rx="4.45167" fill="#888888"/>
<rect x="597.857" y="345.725" width="37.8392" height="27.8229" rx="4.45167" fill="#AAAAAA"/>
<rect x="597.857" y="382.452" width="37.8392" height="27.8229" rx="4.45167" fill="#888888"/>
<rect x="597.857" y="455.904" width="37.8392" height="27.8229" rx="4.45167" fill="#888888"/>
<rect x="597.857" y="419.178" width="37.8392" height="27.8229" rx="4.45167" fill="#343A40"/>
</g>
</g>
<g clip-path="url(#clip24_3_3161)">
<g clip-path="url(#clip25_3_3161)">
<rect x="318.515" y="189.917" width="250.406" height="52.3071" rx="4.45167" fill="white"/>
<g clip-path="url(#clip26_3_3161)">
<rect x="328.531" y="205.609" width="185.857" height="7.84607" rx="3.33875" fill="#888888"/>
<rect x="328.531" y="218.686" width="124.753" height="7.84607" rx="3.33875" fill="#888888"/>
</g>
<path fill-rule="evenodd" clip-rule="evenodd" d="M542.16 223.861C546.463 223.861 549.951 220.373 549.951 216.071C549.951 211.768 546.463 208.28 542.16 208.28C537.858 208.28 534.37 211.768 534.37 216.071C534.37 220.373 537.858 223.861 542.16 223.861Z" fill="#888888"/>
<path fill-rule="evenodd" clip-rule="evenodd" d="M542.16 219.409C544.004 219.409 545.499 217.914 545.499 216.071C545.499 214.227 544.004 212.732 542.16 212.732C540.316 212.732 538.822 214.227 538.822 216.071C538.822 217.914 540.316 219.409 542.16 219.409Z" fill="#ECEEEF"/>
</g>
<g clip-path="url(#clip27_3_3161)">
<rect x="318.515" y="251.127" width="250.406" height="43.4038" rx="4.45167" fill="white"/>
<g clip-path="url(#clip28_3_3161)">
<rect x="328.531" y="264.149" width="185.857" height="6.51057" rx="3.25528" fill="#888888"/>
<rect x="328.531" y="274.999" width="124.753" height="6.51057" rx="3.25528" fill="#888888"/>
</g>
<path fill-rule="evenodd" clip-rule="evenodd" d="M542.16 280.62C546.463 280.62 549.951 277.132 549.951 272.829C549.951 268.527 546.463 265.039 542.16 265.039C537.858 265.039 534.37 268.527 534.37 272.829C534.37 277.132 537.858 280.62 542.16 280.62Z" fill="#888888"/>
<path fill-rule="evenodd" clip-rule="evenodd" d="M542.16 276.168C544.004 276.168 545.499 274.673 545.499 272.829C545.499 270.985 544.004 269.491 542.16 269.491C540.316 269.491 538.822 270.985 538.822 272.829C538.822 274.673 540.316 276.168 542.16 276.168Z" fill="#ECEEEF"/>
</g>
<g clip-path="url(#clip29_3_3161)">
<rect x="318.515" y="303.435" width="250.406" height="43.4038" rx="4.45167" fill="white"/>
<g clip-path="url(#clip30_3_3161)">
<rect x="328.531" y="316.456" width="185.857" height="6.51057" rx="3.25528" fill="#888888"/>
<rect x="328.531" y="327.307" width="124.753" height="6.51057" rx="3.25528" fill="#888888"/>
</g>
<path fill-rule="evenodd" clip-rule="evenodd" d="M542.16 332.927C546.463 332.927 549.951 329.439 549.951 325.136C549.951 320.834 546.463 317.346 542.16 317.346C537.858 317.346 534.37 320.834 534.37 325.136C534.37 329.439 537.858 332.927 542.16 332.927Z" fill="#888888"/>
<path fill-rule="evenodd" clip-rule="evenodd" d="M542.16 328.475C544.004 328.475 545.499 326.98 545.499 325.136C545.499 323.292 544.004 321.798 542.16 321.798C540.316 321.798 538.822 323.292 538.822 325.136C538.822 326.98 540.316 328.475 542.16 328.475Z" fill="#AAAAAA"/>
</g>
<g clip-path="url(#clip31_3_3161)">
<rect x="318.515" y="460.356" width="250.406" height="43.4038" rx="4.45167" fill="white"/>
<g clip-path="url(#clip32_3_3161)">
<rect x="328.531" y="473.377" width="185.857" height="6.51057" rx="3.25528" fill="#888888"/>
<rect x="328.531" y="484.228" width="124.753" height="6.51057" rx="3.25528" fill="#888888"/>
</g>
<path fill-rule="evenodd" clip-rule="evenodd" d="M542.16 489.848C546.463 489.848 549.951 486.36 549.951 482.058C549.951 477.755 546.463 474.267 542.16 474.267C537.858 474.267 534.37 477.755 534.37 482.058C534.37 486.36 537.858 489.848 542.16 489.848Z" fill="#888888"/>
<path fill-rule="evenodd" clip-rule="evenodd" d="M542.16 485.397C544.004 485.397 545.499 483.902 545.499 482.058C545.499 480.214 544.004 478.719 542.16 478.719C540.316 478.719 538.822 480.214 538.822 482.058C538.822 483.902 540.316 485.397 542.16 485.397Z" fill="#ECEEEF"/>
</g>
<g clip-path="url(#clip33_3_3161)">
<rect x="318.515" y="408.049" width="250.406" height="43.4038" rx="4.45167" fill="white"/>
<g clip-path="url(#clip34_3_3161)">
<rect x="328.531" y="421.07" width="185.857" height="6.51057" rx="3.25528" fill="#888888"/>
<rect x="328.531" y="431.921" width="124.753" height="6.51057" rx="3.25528" fill="#888888"/>
</g>
<path fill-rule="evenodd" clip-rule="evenodd" d="M542.16 437.541C546.463 437.541 549.951 434.053 549.951 429.751C549.951 425.448 546.463 421.96 542.16 421.96C537.858 421.96 534.37 425.448 534.37 429.751C534.37 434.053 537.858 437.541 542.16 437.541Z" fill="#888888"/>
<path fill-rule="evenodd" clip-rule="evenodd" d="M542.16 433.089C544.004 433.089 545.499 431.595 545.499 429.751C545.499 427.907 544.004 426.412 542.16 426.412C540.316 426.412 538.822 427.907 538.822 429.751C538.822 431.595 540.316 433.089 542.16 433.089Z" fill="#ECEEEF"/>
</g>
<g clip-path="url(#clip35_3_3161)">
<rect x="318.515" y="355.742" width="250.406" height="43.4038" rx="4.45167" fill="white"/>
<g clip-path="url(#clip36_3_3161)">
<rect x="328.531" y="368.763" width="185.857" height="6.51057" rx="3.25528" fill="#888888"/>
<rect x="328.531" y="379.614" width="124.753" height="6.51057" rx="3.25528" fill="#888888"/>
</g>
<path fill-rule="evenodd" clip-rule="evenodd" d="M542.16 385.234C546.463 385.234 549.951 381.746 549.951 377.444C549.951 373.141 546.463 369.653 542.16 369.653C537.858 369.653 534.37 373.141 534.37 377.444C534.37 381.746 537.858 385.234 542.16 385.234Z" fill="#888888"/>
<path fill-rule="evenodd" clip-rule="evenodd" d="M542.16 380.782C544.004 380.782 545.499 379.287 545.499 377.444C545.499 375.6 544.004 374.105 542.16 374.105C540.316 374.105 538.822 375.6 538.822 377.444C538.822 379.287 540.316 380.782 542.16 380.782Z" fill="#ECEEEF"/>
</g>
</g>
</g>
<path fill-rule="evenodd" clip-rule="evenodd" d="M765.892 330.562C761.502 327.586 755.665 326.806 750.411 326.806C729.894 326.806 710.608 334.418 693.948 345.761C684.819 351.976 676.652 359.891 669.442 368.131C665.28 372.888 661.57 378.034 658.942 383.757C657.17 387.62 655.953 391.645 655.128 395.796C654.123 400.856 653.324 406.018 652.963 411.162C652.821 413.187 651.644 423.935 655.012 424.117C654.992 424.382 654.988 424.634 655.008 424.861C647.696 436.294 643.178 449.694 638.989 462.399C635.344 473.454 632.095 484.602 629.987 496.039C627.211 511.097 625.388 526.38 624.521 541.654C624.334 544.937 624.207 548.221 624.096 551.508C624.003 554.311 623.909 557.115 623.817 559.918C623.714 563.06 623.161 566.677 623.66 569.8C624.095 572.521 626.449 572.109 626.553 569.402C626.679 566.133 626.659 562.858 626.802 559.587C626.992 555.245 627.188 550.903 627.4 546.563C628.879 516.412 634.428 486.704 644.668 458.224C648.812 446.698 653.56 435.788 659.663 425.126C665.029 415.752 671.483 406.677 678.08 398.225C684.493 390.011 691.16 381.987 699.016 375.028C705.392 369.381 712.405 364.462 719.615 359.884C728.771 354.07 737.91 348.398 747.829 343.935C752.984 341.615 758.237 339.538 763.433 337.312C764.368 336.912 765.371 336.523 766.27 336.06C769.269 334.513 768.282 332.183 765.892 330.562" fill="#5FAF8F"/>
<path fill-rule="evenodd" clip-rule="evenodd" d="M683.349 435.872C691.671 435.872 699.076 436.953 706.743 440.26C713.362 443.114 719.393 446.893 725.249 451.006C733.487 456.792 739.975 463.526 744.517 472.448C747.23 477.778 749.22 485.32 747.398 491.134C745.252 497.981 739.358 503.691 731.596 502.485C726.796 501.74 722.396 498.562 718.748 495.572C714.383 491.994 710.89 487.693 708.005 482.915C703.3 475.121 700.535 466.311 696.537 458.167C694.641 454.302 692.808 450.409 690.536 446.736C689.411 444.917 688.214 443.115 686.508 441.764C685.595 441.041 681.746 439.789 683.218 438.165C661.638 438.449 642.52 455.022 638.378 475.537C637.992 477.449 637.69 479.377 637.372 481.3C637.171 482.515 637.252 486.995 636.166 487.771C633.771 489.483 634.778 484.283 634.88 483.534C635.146 481.599 635.429 479.665 635.727 477.735C637.344 467.235 642.019 457.475 649.814 449.987C658.728 441.425 670.755 435.872 683.349 435.872" fill="#94E1C3"/>
<path fill-rule="evenodd" clip-rule="evenodd" d="M83.3996 410.589C104.174 445.441 128.369 479.187 142.899 517.292C142.314 512.8 141.693 508.314 140.998 503.833C137.311 480.083 132.729 456.505 127.914 432.957C125.462 420.968 122.869 409.021 120.209 397.076C118.778 390.66 117.365 384.241 115.905 377.831C115.551 376.278 115.248 373.566 114.805 370.818C128.926 417.156 142.543 463.529 152.504 510.981C153.811 517.209 154.923 523.425 155.835 529.631C156.147 528.215 156.453 526.799 156.789 525.388C160.819 508.463 166.865 491.673 174.063 475.849C177.504 468.281 181.457 460.879 186.111 453.982C189.013 449.682 195.857 444.572 198.505 440.169C184.026 466.724 178.798 499.951 170.438 528.822C168.397 535.868 166.344 542.901 164.332 549.948C176.94 524.664 196.5 503.891 223.696 494.889C190.777 516.64 171.031 554.732 157.725 593.69C157.681 594.152 157.629 594.614 157.584 595.077C161.499 587.646 166.431 580.925 173.116 576.217C187.423 566.14 203.293 569.075 217.171 577.72C206.279 570.796 186.595 577.101 177.43 584.138C170.869 589.175 165.262 595.933 160.393 602.527C159.227 604.107 157.635 605.951 155.954 607.919C153.596 623.222 149.754 638.421 144.315 653.499C145.212 649.171 144.563 642.249 144.812 639.023C144.839 638.674 144.861 638.325 144.888 637.976C144.061 641.278 143.263 644.541 142.493 647.752C144.022 641.625 144.853 635.228 145.502 628.765C145.669 625.988 145.832 623.211 146.004 620.433C145.95 615.162 145.732 609.871 145.365 604.571C144.063 599.419 142.606 594.561 141.403 590.52C137.065 575.94 130.706 561.972 122.878 548.941C115.736 537.05 107.188 526.278 97.3188 516.537C91.9986 511.287 86.4307 506.287 80.9412 501.218C78.9562 499.385 75.4082 494.879 72.3396 492.53C94.6875 504.85 117.69 518.18 133.993 538.031C132.081 530.691 130.005 523.455 127.809 516.365C116.668 480.389 102.601 443.104 83.3996 410.589Z" fill="#888888"/>
<path fill-rule="evenodd" clip-rule="evenodd" d="M105.727 607.869C105.727 647.821 108.891 680.209 151.357 680.209C193.823 680.209 196.986 647.821 196.986 607.869" fill="#343A40"/>
<rect x="578.938" y="93.0931" width="6.6775" height="27.8229" rx="3.33875" fill="#888888"/>
<rect x="594.519" y="75.2864" width="6.6775" height="45.6296" rx="3.33875" fill="#888888"/>
<rect x="610.099" y="66.3831" width="6.6775" height="54.533" rx="3.33875" fill="#888888"/>
<rect x="625.68" y="75.2864" width="6.6775" height="45.6296" rx="3.33875" fill="#888888"/>
<rect x="641.261" y="57.4797" width="6.6775" height="63.4363" rx="3.33875" fill="#343A40"/>
<path fill-rule="evenodd" clip-rule="evenodd" d="M31.3823 398.318C31.3823 385.921 41.4008 375.774 53.6406 375.774V398.318L38.4293 414.726C34.1022 410.715 31.3823 404.83 31.3823 398.318Z" fill="#ECEEEF"/>
<path fill-rule="evenodd" clip-rule="evenodd" d="M53.0517 398.032H75.5295C75.5295 403.843 73.1593 409.287 69.4122 413.244C65.2909 417.571 59.4219 420.291 53.0517 420.291C47.1839 420.291 41.8128 417.944 37.6903 414.233L53.0517 398.032Z" fill="#AAAAAA"/>
<path fill-rule="evenodd" clip-rule="evenodd" d="M75.8989 398.032C75.8989 385.793 65.8804 375.774 53.6406 375.774V398.032H75.8989ZM42.5114 375.774L51.4147 395.807L31.3822 386.903C33.3632 381.71 37.8115 377.755 42.5114 375.774Z" fill="#343A40"/>
<path fill-rule="evenodd" clip-rule="evenodd" d="M755.632 408.248C753.493 410.518 750.464 411.944 747.094 411.944C740.62 411.944 735.371 406.712 735.371 400.258C735.371 393.805 740.62 388.573 747.094 388.573V366.871C728.676 366.871 713.601 381.899 713.601 400.258C713.601 418.618 728.676 433.646 747.094 433.646C756.769 433.646 765.512 429.566 771.472 423.075L755.632 408.248Z" fill="#ECEEEF"/>
<path fill-rule="evenodd" clip-rule="evenodd" d="M746.988 366.871V388.573C753.442 388.573 758.674 393.805 758.674 400.258H780.376C780.376 381.899 765.348 366.871 746.988 366.871Z" fill="#AAAAAA"/>
<path fill-rule="evenodd" clip-rule="evenodd" d="M758.225 400.258C758.225 404.05 756.439 407.42 753.666 409.597L767.312 426.968C775.255 420.749 780.376 411.108 780.376 400.258H758.225Z" fill="#343A40"/>
<path fill-rule="evenodd" clip-rule="evenodd" d="M543.381 101.444C541.736 103.185 539.406 104.278 536.814 104.278C531.834 104.278 527.797 100.267 527.797 95.319C527.797 90.371 531.834 86.36 536.814 86.36V69.7219C522.646 69.7219 511.05 81.2431 511.05 95.319C511.05 109.395 522.646 120.916 536.814 120.916C544.256 120.916 550.982 117.788 555.567 112.812L543.381 101.444Z" fill="#ECEEEF"/>
<path fill-rule="evenodd" clip-rule="evenodd" d="M536.647 69.7219V86.36C541.595 86.36 545.606 90.371 545.606 95.319H562.244C562.244 81.2431 550.723 69.7219 536.647 69.7219Z" fill="#AAAAAA"/>
<path fill-rule="evenodd" clip-rule="evenodd" d="M545.631 95.319C545.631 98.1627 544.292 100.691 542.211 102.323L552.446 115.351C558.404 110.687 562.244 103.457 562.244 95.319H545.631Z" fill="#343A40"/>
<path fill-rule="evenodd" clip-rule="evenodd" d="M138.23 120.901C138.226 120.912 138.221 120.923 138.214 120.936C138.221 120.925 138.23 120.881 138.23 120.901" fill="#343A40"/>
<path fill-rule="evenodd" clip-rule="evenodd" d="M138.22 120.918C138.22 120.92 138.217 120.924 138.217 120.929C138.217 120.918 138.237 120.884 138.22 120.918" fill="#343A40"/>
<path fill-rule="evenodd" clip-rule="evenodd" d="M138.297 120.729C138.281 120.774 138.261 120.816 138.243 120.861C138.252 120.839 138.261 120.821 138.27 120.798C138.039 121.377 138.186 121.001 138.297 120.729" fill="#343A40"/>
<path fill-rule="evenodd" clip-rule="evenodd" d="M138.247 120.863C138.238 120.884 138.229 120.906 138.22 120.926C138.156 121.05 138.247 120.863 138.247 120.863" fill="#343A40"/>
<path fill-rule="evenodd" clip-rule="evenodd" d="M138.221 120.918C138.221 120.916 138.221 120.916 138.223 120.914C138.221 120.916 138.221 120.916 138.221 120.918" fill="#343A40"/>
<path fill-rule="evenodd" clip-rule="evenodd" d="M138.21 120.934C138.197 120.961 138.273 120.832 138.21 120.934Z" fill="#343A40"/>
<path fill-rule="evenodd" clip-rule="evenodd" d="M138.22 120.918L138.224 120.914C138.222 120.916 138.222 120.918 138.22 120.918" fill="#343A40"/>
<rect x="84.8021" y="63.0444" width="105.727" height="70.1138" rx="4.45167" fill="#888888"/>
<path fill-rule="evenodd" clip-rule="evenodd" d="M124.867 83.0769L93.7054 133.158H156.029L124.867 83.0769Z" fill="#AAAAAA"/>
<path fill-rule="evenodd" clip-rule="evenodd" d="M155.472 96.4319L128.206 133.158H182.739L155.472 96.4319Z" fill="#343A40"/>
<path fill-rule="evenodd" clip-rule="evenodd" d="M167.158 96.4319C172.69 96.4319 177.174 91.9474 177.174 86.4156C177.174 80.8838 172.69 76.3994 167.158 76.3994C161.626 76.3994 157.142 80.8838 157.142 86.4156C157.142 91.9474 161.626 96.4319 167.158 96.4319Z" fill="white"/>
<path fill-rule="evenodd" clip-rule="evenodd" d="M669.076 596.117C669.081 596.128 669.085 596.139 669.092 596.152C669.085 596.141 669.076 596.097 669.076 596.117" fill="#343A40"/>
<path fill-rule="evenodd" clip-rule="evenodd" d="M669.087 596.133C669.087 596.136 669.089 596.14 669.089 596.145C669.089 596.133 669.069 596.1 669.087 596.133" fill="#343A40"/>
<path fill-rule="evenodd" clip-rule="evenodd" d="M669.009 595.945C669.025 595.99 669.045 596.032 669.063 596.076C669.054 596.054 669.045 596.036 669.036 596.014C669.268 596.593 669.121 596.217 669.009 595.945" fill="#343A40"/>
<path fill-rule="evenodd" clip-rule="evenodd" d="M669.059 596.079C669.068 596.099 669.077 596.122 669.086 596.142C669.15 596.266 669.059 596.079 669.059 596.079" fill="#343A40"/>
<path fill-rule="evenodd" clip-rule="evenodd" d="M669.085 596.134C669.085 596.132 669.085 596.132 669.083 596.13C669.085 596.132 669.085 596.132 669.085 596.134" fill="#343A40"/>
<path fill-rule="evenodd" clip-rule="evenodd" d="M669.096 596.15C669.109 596.177 669.033 596.048 669.096 596.15Z" fill="#343A40"/>
<path fill-rule="evenodd" clip-rule="evenodd" d="M669.086 596.134L669.082 596.13C669.084 596.132 669.084 596.134 669.086 596.134" fill="#343A40"/>
<rect width="158.034" height="104.614" rx="4.45167" transform="matrix(-1 0 0 1 748.101 510.437)" fill="#888888"/>
<path fill-rule="evenodd" clip-rule="evenodd" d="M689.422 540.486L735.113 615.051H643.731L689.422 540.486Z" fill="#AAAAAA"/>
<path fill-rule="evenodd" clip-rule="evenodd" d="M642.312 560.459L682.705 615.051H601.919L642.312 560.459Z" fill="#343A40"/>
<path fill-rule="evenodd" clip-rule="evenodd" d="M625.124 560.518C616.826 560.518 610.1 553.792 610.1 545.494C610.1 537.196 616.826 530.47 625.124 530.47C633.422 530.47 640.148 537.196 640.148 545.494C640.148 553.792 633.422 560.518 625.124 560.518Z" fill="white"/>
<path fill-rule="evenodd" clip-rule="evenodd" d="M406.393 348.277C413.733 352.7 420.943 354.838 424.328 353.965C432.816 351.777 433.597 320.726 427.029 308.485C420.462 296.244 386.699 290.908 384.998 315.162C384.407 323.58 387.942 331.092 393.164 337.222L383.8 380.867H411L406.393 348.277Z" fill="#CAA684"/>
<path fill-rule="evenodd" clip-rule="evenodd" d="M416.285 295.153C412.568 294.019 407.173 293.635 404.903 293.895C406.195 290.802 406.707 287.355 406.289 284C405.883 280.739 404.426 277.963 403.079 275.053C402.458 273.712 401.754 272.379 400.704 271.353C399.635 270.308 398.282 269.618 396.863 269.289C395.411 268.952 393.892 268.98 392.438 269.286C391.794 269.421 391.217 269.716 390.586 269.879C389.94 270.047 389.626 269.642 389.157 269.236C388.027 268.256 386.37 267.773 384.94 267.6C383.336 267.406 381.671 267.648 380.141 268.175C378.651 268.689 377.221 269.522 376.144 270.737C375.664 271.278 375.229 271.893 374.946 272.573C374.83 272.851 374.811 273.017 374.533 273.119C374.276 273.213 373.975 273.216 373.709 273.306C371.141 274.176 368.946 276.16 367.75 278.707C367.053 280.194 366.722 282.81 366.813 285.743C366.903 288.676 369.552 296.329 372.028 299.121C374.239 301.612 377.489 303.256 380.625 303.976C378.544 306.355 377.158 309.329 376.133 312.353C375.02 315.638 374.331 319.051 374.077 322.528C373.835 325.833 373.813 329.327 374.588 332.56C375.312 335.584 376.862 338.065 379.449 339.639C380.634 340.36 381.909 340.901 383.191 341.396C384.455 341.884 385.722 342.358 387.046 342.632C389.552 343.15 392.438 343.061 394.368 341.067C395.064 340.348 395.829 339.444 396.336 338.566C396.519 338.25 396.629 338.044 396.407 337.735C396.141 337.365 395.712 337.082 395.371 336.793C393.425 335.144 392.221 332.942 391.917 330.326C391.609 327.671 392.323 324.245 394.904 323.086C398.089 321.656 401.598 323.297 404.43 324.828C405.633 320.58 408.104 316.756 411.978 314.807C416.264 312.652 421.183 312.4 425.587 310.55C426.735 310.068 427.904 309.521 428.749 308.539C429.102 308.129 429.516 307.597 429.657 307.054C429.843 306.341 429.383 305.743 429.028 305.187C427.144 302.24 420.002 296.286 416.285 295.153Z" fill="#191847"/>
<path fill-rule="evenodd" clip-rule="evenodd" d="M369.067 469.267L423.559 613.457L461.754 719.733H483.533L431.03 469.267L369.067 469.267Z" fill="#212529"/>
<path fill-rule="evenodd" clip-rule="evenodd" d="M355.599 469.267C355.006 518.741 355.435 585.351 354.055 588.435C352.674 591.519 268.2 658.712 268.2 658.712L279.426 677.8C279.426 677.8 379.716 613.125 384.844 604.508C389.971 595.891 415.731 516.598 429.133 469.267H355.599Z" fill="#343A40"/>
<path fill-rule="evenodd" clip-rule="evenodd" d="M248.451 671.557L267.411 657.127L282.709 675.359C284.474 695.975 296.361 721.602 296.361 721.602L292.889 724.516L265.206 691.525L257.472 678.782L255.735 680.239L248.451 671.557Z" fill="#191847"/>
<path fill-rule="evenodd" clip-rule="evenodd" d="M459.733 740.133L460.867 716.333L484.667 716.333C501.595 728.233 528.867 735.6 528.867 735.6V740.133H485.8L471.067 737.867V740.133H459.733Z" fill="#191847"/>
<path fill-rule="evenodd" clip-rule="evenodd" d="M285.613 522.855C289.839 516.645 314.289 450.607 314.289 450.607L334.362 453.523C334.362 453.523 302.042 523.647 299.708 527.694C296.675 532.952 299.358 541.586 301.176 547.442C301.458 548.347 301.718 549.187 301.934 549.937C298.114 551.04 296.66 548.853 295.128 546.548C293.397 543.944 291.566 541.189 286.11 542.851C284.002 543.494 281.977 544.319 279.998 545.125C273.163 547.91 266.885 550.468 259.673 544.486C258.53 543.538 257.567 540.437 261.201 538.63C270.254 534.128 283.546 525.891 285.613 522.855ZM503.418 492.162L469.207 463.158L459.856 482.308L494.533 499.614C503.803 512.184 509.105 517.525 510.439 515.636C511.563 514.043 510.884 512.431 510.258 510.947C509.771 509.79 509.316 508.711 509.772 507.778C510.812 505.647 517.581 506.352 523.975 507.296C530.369 508.24 528.696 505.248 527.245 503.727C520.957 499.34 513.015 495.485 503.418 492.162Z" fill="#CAA684"/>
<path fill-rule="evenodd" clip-rule="evenodd" d="M398.188 368.776L410.626 364.663C427.498 406.812 452.662 447.593 494.705 482.04L484.308 499.976C447.358 478.211 412.381 461.302 398.188 428.642C393.424 417.68 397.799 381.883 398.188 368.776Z" fill="#E0D6CC"/>
<path fill-rule="evenodd" clip-rule="evenodd" d="M355.467 487.4C355.467 487.4 408.912 493.067 439.601 487.4C442.136 486.932 442.536 482.688 441.36 479.808C423.054 434.954 410.502 395.817 410.502 364.663C405.463 367.203 392.867 365.424 392.867 365.424C370.298 397.53 359.923 434.367 355.467 487.4Z" fill="#FFCE67"/>
<path fill-rule="evenodd" clip-rule="evenodd" d="M386.399 362.733C386.982 362.341 387.289 362.146 387.289 362.146L387.256 362.733H396.662C397.134 365.513 397.827 375.815 398.836 390.838C402.504 445.427 410.361 562.344 427.083 607.087H311.703C314.138 556.218 332.893 495.386 352.321 443.733C337.985 457.997 321.242 481.907 307.71 521.709L286.098 516.161C308.123 421.257 372.65 372.312 385.171 363.576C385.293 363.294 385.415 363.013 385.536 362.733H386.399Z" fill="#E8E3DF"/>
<defs>
<clipPath id="clip0_3_3161">
<rect width="736.751" height="260.423" fill="white" transform="translate(43.4038 398.424)"/>
</clipPath>
<clipPath id="clip1_3_3161">
<rect width="176.954" height="336.101" fill="white" transform="translate(153.803 84.1898)"/>
</clipPath>
<clipPath id="clip2_3_3161">
<rect width="145.792" height="227.035" fill="white" transform="translate(169.384 115.352)"/>
</clipPath>
<clipPath id="clip3_3_3161">
<rect width="145.792" height="60.0975" fill="white" transform="translate(169.384 115.352)"/>
</clipPath>
<clipPath id="clip4_3_3161">
<rect width="81.243" height="24.039" fill="white" transform="translate(212.788 133.381)"/>
</clipPath>
<clipPath id="clip5_3_3161">
<rect width="145.792" height="46.7425" fill="white" transform="translate(169.384 184.352)"/>
</clipPath>
<clipPath id="clip6_3_3161">
<rect width="81.243" height="18.697" fill="white" transform="translate(212.788 198.375)"/>
</clipPath>
<clipPath id="clip7_3_3161">
<rect width="145.792" height="46.7425" fill="white" transform="translate(169.384 239.998)"/>
</clipPath>
<clipPath id="clip8_3_3161">
<rect width="81.243" height="18.697" fill="white" transform="translate(212.788 254.021)"/>
</clipPath>
<clipPath id="clip9_3_3161">
<rect width="145.792" height="46.7425" fill="white" transform="translate(169.384 295.644)"/>
</clipPath>
<clipPath id="clip10_3_3161">
<rect width="81.243" height="18.697" fill="white" transform="translate(212.788 309.667)"/>
</clipPath>
<clipPath id="clip11_3_3161">
<rect width="230.374" height="336.101" fill="white" transform="translate(173.836 113.126)"/>
</clipPath>
<clipPath id="clip12_3_3161">
<rect width="145.792" height="227.035" fill="white" transform="translate(242.837 144.287)"/>
</clipPath>
<clipPath id="clip13_3_3161">
<rect width="145.792" height="60.0975" fill="white" transform="translate(242.837 144.287)"/>
</clipPath>
<clipPath id="clip14_3_3161">
<rect width="81.243" height="24.039" fill="white" transform="translate(252.853 162.317)"/>
</clipPath>
<clipPath id="clip15_3_3161">
<rect width="145.792" height="46.7425" fill="white" transform="translate(242.837 213.288)"/>
</clipPath>
<clipPath id="clip16_3_3161">
<rect width="81.243" height="18.697" fill="white" transform="translate(286.24 227.311)"/>
</clipPath>
<clipPath id="clip17_3_3161">
<rect width="145.792" height="46.7425" fill="white" transform="translate(242.837 268.934)"/>
</clipPath>
<clipPath id="clip18_3_3161">
<rect width="81.243" height="18.697" fill="white" transform="translate(252.853 282.957)"/>
</clipPath>
<clipPath id="clip19_3_3161">
<rect width="145.792" height="46.7425" fill="white" transform="translate(242.837 324.58)"/>
</clipPath>
<clipPath id="clip20_3_3161">
<rect width="81.243" height="18.697" fill="white" transform="translate(286.24 338.603)"/>
</clipPath>
<clipPath id="clip21_3_3161">
<rect width="372.827" height="385.069" fill="white" transform="translate(300.708 140.949)"/>
</clipPath>
<clipPath id="clip22_3_3161">
<rect width="77.9042" height="215.906" fill="white" transform="translate(577.825 287.854)"/>
</clipPath>
<clipPath id="clip23_3_3161">
<rect width="37.8392" height="175.841" fill="white" transform="translate(597.857 307.886)"/>
</clipPath>
<clipPath id="clip24_3_3161">
<rect width="250.406" height="313.843" fill="white" transform="translate(318.515 189.917)"/>
</clipPath>
<clipPath id="clip25_3_3161">
<rect width="250.406" height="52.3071" fill="white" transform="translate(318.515 189.917)"/>
</clipPath>
<clipPath id="clip26_3_3161">
<rect width="185.857" height="20.9228" fill="white" transform="translate(328.531 205.609)"/>
</clipPath>
<clipPath id="clip27_3_3161">
<rect width="250.406" height="43.4038" fill="white" transform="translate(318.515 251.127)"/>
</clipPath>
<clipPath id="clip28_3_3161">
<rect width="185.857" height="17.3615" fill="white" transform="translate(328.531 264.149)"/>
</clipPath>
<clipPath id="clip29_3_3161">
<rect width="250.406" height="43.4038" fill="white" transform="translate(318.515 303.435)"/>
</clipPath>
<clipPath id="clip30_3_3161">
<rect width="185.857" height="17.3615" fill="white" transform="translate(328.531 316.456)"/>
</clipPath>
<clipPath id="clip31_3_3161">
<rect width="250.406" height="43.4038" fill="white" transform="translate(318.515 460.356)"/>
</clipPath>
<clipPath id="clip32_3_3161">
<rect width="185.857" height="17.3615" fill="white" transform="translate(328.531 473.377)"/>
</clipPath>
<clipPath id="clip33_3_3161">
<rect width="250.406" height="43.4038" fill="white" transform="translate(318.515 408.049)"/>
</clipPath>
<clipPath id="clip34_3_3161">
<rect width="185.857" height="17.3615" fill="white" transform="translate(328.531 421.07)"/>
</clipPath>
<clipPath id="clip35_3_3161">
<rect width="250.406" height="43.4038" fill="white" transform="translate(318.515 355.742)"/>
</clipPath>
<clipPath id="clip36_3_3161">
<rect width="185.857" height="17.3615" fill="white" transform="translate(328.531 368.763)"/>
</clipPath>
</defs>
</svg>
